/* XPM */
static char *zest80[] = {
/* columns rows colors chars-per-pixel */
"80 80 93 2 ",
"   c None",
".  c #0D172B",
"X  c #0D1C2E",
"o  c #0D1E30",
"O  c #0D2434",
"+  c #0D2937",
"@  c #0D2D3A",
"#  c #0D313E",
"$  c #0C3640",
"%  c #0C3943",
"&  c #0C4047",
"*  c #0C424A",
"=  c #0C4C4F",
"-  c #0C4E51",
";  c #0B5455",
":  c #0E5E56",
">  c #0B5B5A",
",  c #0B605F",
"<  c #0B6461",
"1  c #0B6B65",
"2  c #0A746B",
"3  c #0A7A6F",
"4  c #0A7D72",
"5  c #098476",
"6  c #0B8A7E",
"7  c #0B8D80",
"8  c #1D8A8D",
"9  c #099482",
"0  c #089C86",
"q  c #0A9F8D",
"w  c #1B8B95",
"e  c #198D9D",
"r  c #1A9097",
"t  c #1B909E",
"y  c #0DA182",
"u  c #09A28B",
"i  c #0FB78F",
"p  c #13B78B",
"a  c #09A790",
"s  c #09AB92",
"d  c #0CB592",
"f  c #03B994",
"g  c #0CB994",
"h  c #0BB29A",
"j  c #07BC9C",
"k  c #09BD9B",
"l  c #10B790",
"z  c #10BA91",
"x  c #198FA0",
"c  c #1A92A3",
"v  c #1B96A8",
"b  c #09BDA1",
"n  c #0FC197",
"m  c #07C09F",
"M  c #09C19E",
"N  c #07C3A2",
"B  c #08C4A3",
"V  c #07C9A7",
"C  c #08C8A7",
"Z  c #06CAA9",
"A  c #08CCAB",
"S  c #1BC0A0",
"D  c #07D2AC",
"F  c #08D0AE",
"G  c #06D6B0",
"H  c #09D4B3",
"J  c #05DAB3",
"K  c #09D9B7",
"L  c #07DBB8",
"P  c #09DBB8",
"I  c #20C3A5",
"U  c #06E0B5",
"Y  c #06E4B9",
"T  c #08E3BC",
"R  c #06EBBF",
"E  c #08E9BF",
"W  c #07EEC2",
"Q  c #07F0C3",
"!  c #06F9C7",
"~  c #07F7C8",
"^  c #05FECB",
"/  c #05FFD1",
"(  c #27F1CB",
")  c #2AF1CB",
"_  c #68DBC7",
"`  c #57E6CF",
"'  c #50F4D5",
"]  c #75E0CE",
"[  c #D5FBF4",
"{  c #E3F9F5",
"}  c #EEFAF8",
"|  c #F1FEFC",
" . c white",
/* pixels */
"                                                                                                        8                                                       ",
"                                                                                                      e c e e                                                   ",
"                                                                                                    e c e x c e                                                 ",
"                                                                                                  w c e x e x x c w                                             ",
"                                                                                                  c e e x e e e e c w                                           ",
"                                                                                                e c e e e x e e e e c                                           ",
"                                                                                                e e e x w e x e e e x e                                         ",
"                                                                                              w c e e x e 8 e c x e e c w                                       ",
"                                                                                              e x x e x c e   t x e e x x                                       ",
"                                                                                              e x e e e e c w   c e e x c w                                     ",
"                                                                                              e x e x e e x e   e c e e x e                                     ",
"                                                                                              e x e e e e e c     e e e x x                                     ",
"                                                                                              e x x x c c c v e   e v e e e                                     ",
"                                                                                              e c e w e     e w     r     w w e e e                             ",
"                                                                                              w w                     e c c c c c c c t e                       ",
"                                                                                                  e e c c c e e e     e c e c c e e e e c e                     ",
"                                                                                                t c x e e e e x c x w   e e w     w w e c e                     ",
"                                                                                              e v c c x e e e e e x c e       e e c e x e                       ",
"                                                                                            w e w w w e c e e e e e x x t   w v e e e c                         ",
"                                                                                            w           e c x e x e e e c t   w c c c w                         ",
"                                                                                      k k k h d             e c x e e e e c e   e e                             ",
"                                                                                  k N M j j j B k             e x e x e e e c                                   ",
"                                                                            g j B b k k j j j j N k             e c x e e e c w                                 ",
"                                                                z g f S S m B j j b k k j j j j k B g             w e c x e x e                                 ",
"                                                          g g j Z Z ] [ } _ B b k k j j j j j j j j k                 e c c v e                                 ",
"                                                      g b K K K P T [  .| ` J K K A N j j j j j j j M                     w t                                   ",
"                                      O O O       M F K K P W W W ~ ( ' ( R T T K P K K N j j j j j b k                                                         ",
"                                    O O + O O O % < 9 A Q ~ W Q Q Q ~ R W W W ~ W T K P P K k j j j k N                                                         ",
"                                    O O O O O O O o X # 1 j ~ ^ ^ ^ ^ ^ ! ~ W ~ Q Q W P K K P N j j j j j                                                       ",
"                                    O + O O O O O O O O o o ; s ^ ^ ^ ^ ^ ^ ! R Q W Q Q T K P P Z j j j B k                                                     ",
"                                      O O O O O O O O O O O o o ; B ^ ^ ! ^ ^ ! W Q Q W W T K K P A j j k B z                                                   ",
"                                    : O O O O O O O O O O O O O X O 9 ^ ^ ^ ^ ^ ^ Q Q Q Q Q T K P P N j k k N z                                                 ",
"                                  z 1 o O O O O O O O O O O O O O O X < T / ^ ^ ^ ~ W W W ~ R J J K K N j j j j                                                 ",
"                                  N > O O O O O O O O O O O O O O O O X % f ^ ^ ^ ^ W ~ W W ~ T K K K K j j j b k                                               ",
"                                M A & O O O O O O O O O O + O O O O O O o o 1 J ^ ^ ~ ~ W W W ~ P K K K C j j j N g                                             ",
"                              g C F % O O O O O O O O O O O O O O O O O O O o + 2 B R ~ ^ ~ ~ ~ W P K K J b j j k k                                             ",
"                              B K A $ o O O O O O O O O O O O O O O O O O O O o . O % < 6 a b Z K F K P W C j j j B g                                           ",
"                            g Z P C $ o O O O + O O O O O O O O O O O O O O O * ; O O X X o O + + $ % , 7 h b b m k k                                           ",
"                            k K P K % o O O O O O O O + O O O O O O O O O O + T R # O O O O O O O o o o X + % 2 u m N g                                         ",
"                          d A K P W - o O O O O O O O O O O O O O O O O O o 2 / J + O O O O O O + O + O o + o o O : 0 k                                         ",
"                          b K K T ~ 4 o O O O O O O O O O O O O O O O O O @ J / 0 X O O O O O O O O O O O O O O O o O ;                                         ",
"                        d A K K W ~ C O O O O O O O O O O O O O O O O O X u / ^ 2 o O O O O O O O O O O O O O O O O O O O O                                     ",
"                        g A K K W W ~ 4 . O O O O O O O O O O O O O O o 2 ^ ^ ^ > o O O O O O O O O + O O O O O O O O O O O O                                   ",
"                        N K K P W W Q W , X O O O O O O O O O O O O X 1 ~ ^ ^ ! = o O O O O O O O O O O O O O O O O O O O O O O                                 ",
"                      z A K K K Q Q Q Q W 4 O X O O O O O O O O X O 5 ^ ^ ^ ^ ! = o O O O O O O O O O O O O O O O O O O O O + O                                 ",
"                      d A K K T Q Q Q Q W ~ N 1 $ O X X X X X + > B ^ ^ ^ ^ ^ ^ ; o O O O O O O O O O + O O O O O O O O O O O O                                 ",
"                      z A P K T Q Q Q Q Q Q ~ ~ R N 9 2 1 4 0 F ^ ^ ^ ^ ^ ^ ^ ^ 1 o O O O O O O O O O O O O O O O O O O O +                                     ",
"                      k A K K T Q Q Q Q W Q W W ~ ^ / / / ^ / / ^ ^ ^ ^ ^ ^ ! ^ 9 o O O O O O O O O O O O O O O O O O O & y                                     ",
"                      k K P K T Q Q Q Q Q W W Q Q Q ~ ~ ~ ~ ^ ^ ^ ^ ^ ^ ~ ~ W ~ A + O O O O O O O O O O O O O O O O O O 9 n                                     ",
"                      N A P K P Q Q Q Q Q Q Q Q Q W ! ~ ~ ~ ^ ^ ^ ^ ^ ~ ~ Q W Q ~ < o O O O O O O O O O O O O O O O X > B g                                     ",
"                      M K P K P Q Q Q Q Q Q W Q Q Q Q Q Q Q ! ! ! Q Q Q Q Q Q Q ~ F $ o O O O O O O O + O O O O O o $ s N g                                     ",
"                      N K P K P E Q Q Q Q Q Q Q Q Q Q Q Q Q W W Q Q Q Q Q Q Q Q W ~ s O o + O O O O O O O O O O O + 9 B N g                                     ",
"                      k A K K K E Q Q W Q Q Q Q Q Q Q Q Q W W Q Q Q Q Q Q Q Q W Q Q ~ s + o O O O O O O O O O O O 5 B j N                                       ",
"                      k F P K K T Q Q Q Q R Q Q Q Q Q Q Q Q Q Q Q Q Q Q W Q Q Q Q Q W ~ A < O o O O O o O O o + 5 j j j M                                       ",
"                      k A P K K K Q Q Q Q Q Q Q Q Q Q Q Q W Q Q Q Q Q Q Q Q W Q Q Q Q Q ~ Q k , + o o o o @ > u b j j j k                                       ",
"                      k A P K K K T Q Q Q Q Q Q Q Q Q W Q Q Q Q Q W Q Q Q Q Q Q Q W Q Q Q Q Q P C a 7 7 q b b b j j k N g                                       ",
"                      g A K K K K K Q Q Q Q Q Q Q Q Q W Q Q Q Q Q Q Q W Q Q Q Q Q Q W Q Q W P P P P P T T Z j j j j j B                                         ",
"                        N K K K K K T Q Q Q Q Q Q Q Q Q Q W Q Q Q W Q Q Q Q Q W Q Q Q Q Q T K K P P P K K j j j j j j j                                         ",
"                        g K K K K K K E Q Q Q Q W Q Q Q Q Q Q Q Q Q Q Q Q W Q Q W Q Q Q T K K K P P K P A k j j j j m g                                         ",
"                        d A K K K K K T E Q Q Q Q Q Q Q W Q W Q Q Q W Q Q Q Q Q Q Q Q T K K K K K K K K j j j j j j B                                           ",
"                          B K K K K K K K E Q Q Q Q Q Q Q Q Q Q Q Q Q Q Q W Q Q W W T K K K K K K K P A j j j j j b k                                           ",
"                          g Z P K K K K K T E Q Q W Q Q Q Q Q Q Q Q W Q Q Q Q Q W P K K K K K K K P K j j j j j j B p                                           ",
"                          i Z K K K K K K K K T E Q Q Q Q Q Q Q Q W Q Q Q Q W T K K K K K K K K P P N j j j j j j j                                             ",
"                            g A K K K K K K K K K T E W Q Q Q Q Q Q Q Q E T K K K P K K K K K K P N j j j j j j B                                               ",
"                            d N K K K K K K K K P K K P T T T W T T T P K K K K K K K K K K K P A j j j j j j b g                                               ",
"                              g N K K K K K K K K K K K K K K K K K K K K K K K K K K P K K P F j j j j j j j j                                                 ",
"                                M N K K K K K K K K K K K K K K K K K K K K K K K K K K K P A j j j j j j j B                                                   ",
"                                g N N K K K K K K K K K K K K K K K K K K K K K K K K K P A j j j j j j j B d                                                   ",
"                                  g N N K K K K K K K K K K K K K K K K K K K K K K P K C j j j j j j b N g                                                     ",
"                                    k N k A K K K K K K K K K K K K K K K K K K P K Z b j j j j j j m k g                                                       ",
"                                      k j j C K K P K K K K K K K K K K K P P K K N k j j j j j j B k                                                           ",
"                                        N k j j C A K P K P K K P K K K K K Z B j f k j j j j j B g                                                             ",
"                                        g B j j k j j N C A F F F F A N N b j j j j j j k N N k                                                                 ",
"                                          j j j j j j j j j j b j j j j j j j j j j j k N k z                                                                   ",
"                                          g B j j j j j j j j j j j k k j j j j B B M k z                                                                       ",
"                                          d B j j j j j j j j j j j j N B B j j k g                                                                             ",
"                                            k j j j j j j j j j N M k g g g                                                                                     ",
"                                              M B j j j j j B k g                                                                                               ",
"                                                k j j j B k g                                                                                                   ",
"                                                    g k p                                                                                                       "
};
