/* XPM */
static char *zest16[] = {
/* columns rows colors chars-per-pixel */
"16 16 88 1 ",
"  c None",
". c #0D192C",
"X c #0D1B2D",
"o c #0D1B2E",
"O c #0D1E30",
"+ c #0D1F30",
"@ c #0D2331",
"# c #0D2434",
"$ c #0D2435",
"% c #0D2837",
"& c #0D2939",
"* c #0D2A3A",
"= c #0D2D3A",
"- c #0C3741",
"; c #0C3A43",
": c #0C3F46",
"> c #0C434A",
", c #0C4A4E",
"< c #0A4C4F",
"1 c #0C4E52",
"2 c #0B5859",
"3 c #0A6F68",
"4 c #0B746D",
"5 c #0A8173",
"6 c #0A8B7E",
"7 c #099681",
"8 c #0A9D84",
"9 c #1A8C9A",
"0 c #188C9C",
"q c #198C9C",
"w c #198D9C",
"e c #1A8D9C",
"r c #1A8E9F",
"t c #1A909E",
"y c #08A98F",
"u c #0AA790",
"i c #0AB498",
"p c #07BB9B",
"a c #08BA9A",
"s c #08BD9B",
"d c #0CBD98",
"f c #08BF9C",
"g c #1A90A1",
"h c #1A91A2",
"j c #07C1A0",
"k c #04C2A0",
"l c #07C2A0",
"z c #07C6A5",
"x c #08C1A1",
"c c #08C3A2",
"v c #08C2A3",
"b c #08C3A3",
"n c #08C9A6",
"m c #09C9A7",
"M c #07CBA9",
"N c #09C9A8",
"B c #08CAA9",
"V c #09CEAD",
"C c #08D2B0",
"Z c #08D2B1",
"A c #08D4B2",
"S c #06DBB2",
"D c #06DBB6",
"F c #09D8B6",
"G c #09D9B7",
"H c #09DBB8",
"J c #09DBB9",
"K c #08DFB9",
"L c #09E0BC",
"P c #09E1BD",
"I c #08E3BC",
"U c #08E5BD",
"Y c #07E8BD",
"T c #08E8BF",
"R c #16E2BB",
"E c #07ECC1",
"W c #07EFC3",
"Q c #08E8C0",
"! c #08ECC3",
"~ c #07F1C3",
"^ c #07F2C4",
"/ c #07F4C6",
"( c #07F5C6",
") c #07F6C7",
"_ c #07F7C7",
"` c #08F2C7",
"' c #06F9C7",
"] c #2AF7CF",
/* pixels */
"                ",
"          he    ",
"         0qw    ",
"          g9t   ",
"        pi r9   ",
"    @5R]Dz      ",
"    *$<k_Qn     ",
"   u%#o;3468    ",
"   K2+=y:.O&    ",
"  m`YcS',X+-    ",
"  N!^)(/v1>7    ",
"   LE~~~WHBf    ",
"   VPUTIJZj     ",
"    CFGGAl      ",
"    aMbxs       ",
"     d          "
};
