/* XPM */
static char *zest48[] = {
/* columns rows colors chars-per-pixel */
"48 48 68 1 ",
"  c None",
". c #0D1C2E",
"X c #0D1F30",
"o c #0D2434",
"O c #0D2A37",
"+ c #0E2739",
"@ c #0D2B39",
"# c #0D333D",
"$ c #0C3742",
"% c #0C3C45",
"& c #0C4047",
"* c #0C444A",
"= c #0C4A4E",
"- c #0C4C50",
"; c #0B5255",
": c #0C5658",
"> c #0B5C5A",
", c #0C665F",
"< c #0B6561",
"1 c #0B6B66",
"2 c #0B6F68",
"3 c #0B776E",
"4 c #0A8B7C",
"5 c #099582",
"6 c #099B86",
"7 c #1B8B95",
"8 c #1A8D9C",
"9 c #08A68E",
"0 c #08AC92",
"q c #09B394",
"w c #0BBA95",
"e c #0AB59A",
"r c #07BC9C",
"t c #09BC9A",
"y c #198FA0",
"u c #1A92A3",
"i c #1B97A9",
"p c #0ABDA3",
"a c #07C09F",
"s c #09C09E",
"d c #07C3A2",
"f c #08C4A5",
"g c #07C8A5",
"h c #09C8A6",
"j c #08CCAB",
"k c #07D0AB",
"l c #08D0AF",
"z c #09D5B2",
"x c #05DAB4",
"c c #09D9B7",
"v c #09DBB9",
"b c #2FC8AC",
"n c #05E3BA",
"m c #08E3BC",
"M c #07E9BE",
"N c #08E8BF",
"B c #45D4BB",
"V c #07EDC1",
"C c #08EDC2",
"Z c #07F1C3",
"A c #05FBC7",
"S c #07F7C8",
"D c #05FDCB",
"F c #05FFD0",
"G c #50EACF",
"H c #62F0D6",
"J c #8CDECF",
"K c #D2FFF6",
/* pixels */
"                               7                ",
"                              8u8               ",
"                             7u8yu7             ",
"                             8u8yyu7            ",
"                            8uy77u8u            ",
"                            8y8u78uu8           ",
"                            8y8u8 yu8           ",
"                            8iy8u 8y8           ",
"                            88     78888        ",
"                             8y888 8u888i8      ",
"                            8uuuyu88  8yu       ",
"                            7  8uy8u87ui8       ",
"                         wwww   8u88u878        ",
"                       wpddrfw   8uu88          ",
"                  wrbJBdprrrrf     uuu          ",
"                hjnnHKGxzgprrfw                 ",
"           ooo#3pCSSSSVMnvzjwrp                 ",
"           ooooXo;0SFSASVSnclprr                ",
"           OoooooX.=dFFSSVSnvzrdw               ",
"           *oooooooXO6SSAVVVvvjrdw              ",
"          w$ooooooooo.>kSSSSVvzfrs              ",
"         shOoooooooOoo.o20jmVmmcaaw             ",
"         zh+ooooooooooo*=.+$=-<49rg             ",
"        wvz$ooooooooooXg9.ooXX.Xo=4q            ",
"        jvZ>.oooooooo.<F<XooooooooX$            ",
"       wvvSpoXoooooo.*nS*ooooooooooooo          ",
"       fvmZS0#..ooX.-xFS*Xooooooooooo+          ",
"       hvmZZSz5>%%:6ASSS=Xoooooooooooo          ",
"       lvnZCMSSSSMSFSSSS1.oooooooooo1           ",
"       zvnZZMSSVASSSSSSSeXooOoooooX-w           ",
"       zvnSMSMMSVVSAVVVSS1.ooooooXO9f           ",
"       zvxMSMSSMSSVSSVVVSn2XooooX+5gw           ",
"       jvvMSMSMSVZCSMSMSMSSq:O++-6adw           ",
"       fvvcSSMSMVSSMSMSMSMSVchepppra            ",
"       wvccNMSMSZCCZMSMSVSVvcvvzrrrr            ",
"       wcvcvVMSMVVSZSMSMSCvzcvvdrrdw            ",
"        hcccvVSMVVVVCVZZnvzvvvjrrrw             ",
"        wcvcccmVSVSVSSCnvvccvzrrrdw             ",
"         fvccccvvCCmmvvzcccczhrrrw              ",
"         wlvcccccczvvzccccvchwrpd               ",
"          wzvvvvvcvvcccccvzdrrrdw               ",
"           wjzcvvzzvccccvlrrrrfw                ",
"            rrjzcvvzvczjdrrrdw                  ",
"            wprrdfjjhfprrrdfw                   ",
"             drrrrrrpddhwws                     ",
"             wdrrrrdrwww                        ",
"              wdddw                             ",
"               ww                               "
};
