/* XPM */
static char *zest32[] = {
/* columns rows colors chars-per-pixel */
"32 32 230 2 ",
"   c None",
".  c #0D152A",
"X  c #0D192C",
"o  c #0D1A2D",
"O  c #0D1B2E",
"+  c #0D1C2E",
"@  c #0D1D2F",
"#  c #0D1E30",
"$  c #0D1F30",
"%  c #0D1F31",
"&  c #0D2031",
"*  c #0D2131",
"=  c #0D2132",
"-  c #0D2233",
";  c #0D2333",
":  c #0D2434",
">  c #0D2435",
",  c #0D2535",
"<  c #0D2536",
"1  c #0E2537",
"2  c #0D2736",
"3  c #0D2937",
"4  c #0E2638",
"5  c #0D2B39",
"6  c #0D2E3B",
"7  c #0D2F3C",
"8  c #0C303B",
"9  c #0C333E",
"0  c #0C3741",
"q  c #0C3842",
"w  c #0D3843",
"e  c #0C3D45",
"r  c #0D3E44",
"t  c #0D424A",
"y  c #0C454B",
"u  c #0C464C",
"i  c #0C484E",
"p  c #0C494E",
"a  c #0C4B4F",
"s  c #0B5253",
"d  c #0B5555",
"f  c #0B6561",
"g  c #0B6963",
"h  c #0B6F67",
"j  c #0C6D69",
"k  c #0B726B",
"l  c #0A796E",
"z  c #0A796F",
"x  c #0A7C71",
"c  c #0A7C72",
"v  c #0A7E73",
"b  c #0B7E74",
"n  c #098376",
"m  c #0A8276",
"M  c #09917F",
"N  c #099682",
"B  c #099984",
"V  c #0A9A86",
"C  c #1A8A95",
"Z  c #1B8B97",
"A  c #198B9A",
"S  c #1A8C99",
"D  c #1B8C99",
"F  c #198D9A",
"G  c #198C9B",
"H  c #1A8C9A",
"J  c #1A8D9A",
"K  c #1A8C9B",
"L  c #1A8D9B",
"P  c #198E9B",
"I  c #1B8E9B",
"U  c #198D9C",
"Y  c #198D9D",
"T  c #1A8C9C",
"R  c #1A8D9C",
"E  c #1A8C9D",
"W  c #198F9D",
"Q  c #198E9E",
"!  c #198E9F",
"~  c #198F9F",
"^  c #1A8F9F",
"/  c #1A909F",
"(  c #09A48C",
")  c #09AA8D",
"_  c #09AC93",
"`  c #0AB596",
"'  c #09BA97",
"]  c #0CBA95",
"[  c #0CBB97",
"{  c #09B79B",
"}  c #07BB9B",
"|  c #07BC9C",
" . c #07BD9D",
".. c #07BE9D",
"X. c #07BE9E",
"o. c #09BA98",
"O. c #09BB98",
"+. c #09BB99",
"@. c #08BB9A",
"#. c #08BB9B",
"$. c #0ABD99",
"%. c #08BC9A",
"&. c #09BD9A",
"*. c #08BC9B",
"=. c #08BD9B",
"-. c #09BD9B",
";. c #0ABE9B",
":. c #0AB99C",
">. c #08BD9C",
",. c #09BF9C",
"<. c #08BF9D",
"1. c #0FBF9F",
"2. c #198FA0",
"3. c #1A8FA0",
"4. c #1990A1",
"5. c #1A90A0",
"6. c #1A90A1",
"7. c #1A93A5",
"8. c #1A94A6",
"9. c #1B96A8",
"0. c #1B98AA",
"q. c #1B9AAC",
"w. c #09BBA0",
"e. c #07C09F",
"r. c #08C09E",
"t. c #07C1A0",
"y. c #07C2A1",
"u. c #07C3A2",
"i. c #07C3A3",
"p. c #07C4A3",
"a. c #07C5A3",
"s. c #07C6A2",
"d. c #07C7A5",
"f. c #08C2A2",
"g. c #09C3A3",
"h. c #08C4A4",
"j. c #08C5A5",
"k. c #08C6A6",
"l. c #08C7A6",
"z. c #09C9A6",
"x. c #0AC3A8",
"c. c #09C5A9",
"v. c #07CBA8",
"b. c #09CAA8",
"n. c #08CAA9",
"m. c #08CBAA",
"M. c #08CDA9",
"N. c #09CCAB",
"B. c #08CFAD",
"V. c #09CEAF",
"C. c #07D3AE",
"Z. c #08D1AE",
"A. c #08D1AF",
"S. c #07D3B1",
"D. c #08D1B0",
"F. c #09D1B0",
"G. c #09D2B0",
"H. c #09D3B1",
"J. c #09D3B2",
"K. c #09D4B2",
"L. c #09D5B2",
"P. c #09D5B3",
"I. c #09D8B5",
"U. c #09DAB4",
"Y. c #09D8B6",
"T. c #09D8B7",
"R. c #09D9B7",
"E. c #08DDB6",
"W. c #09D9B8",
"Q. c #09DAB8",
"!. c #09DBB8",
"~. c #09DBB9",
"^. c #09DCB8",
"/. c #09DCB9",
"(. c #09DDB9",
"). c #09DCBA",
"_. c #09DDBA",
"`. c #08DFBA",
"'. c #09DEBB",
"]. c #27C5A7",
"[. c #06E1B5",
"{. c #06E6BA",
"}. c #04E6BD",
"|. c #08E0B8",
" X c #08E1BB",
".X c #08E1BC",
"XX c #08E2BC",
"oX c #08E3BC",
"OX c #09E2BD",
"+X c #09E3BD",
"@X c #0FE1BD",
"#X c #08E5BD",
"$X c #08E6BD",
"%X c #08E6BE",
"&X c #08E7BE",
"*X c #08E7BF",
"=X c #08E8BF",
"-X c #07ECC1",
";X c #07EDC1",
":X c #07EDC2",
">X c #07EFC2",
",X c #08E9C0",
"<X c #08EAC0",
"1X c #08ECC4",
"2X c #07F0C3",
"3X c #07F1C3",
"4X c #07F1C4",
"5X c #07F2C4",
"6X c #07F3C4",
"7X c #07F2C5",
"8X c #07F3C5",
"9X c #05F5C5",
"0X c #06F4C4",
"qX c #07F4C5",
"wX c #07F4C6",
"eX c #07F5C7",
"rX c #00FAC7",
"tX c #05F8C5",
"yX c #05FAC7",
"uX c #07F9C9",
"iX c #06FAC8",
"pX c #02FFCD",
"aX c #05FFCC",
"sX c #06FFCC",
"dX c #05FFCE",
"fX c #05FFCF",
"gX c #05FFD0",
"hX c #33F1CE",
"jX c #6AD4C0",
"kX c #8AFCE7",
/* pixels */
"                                                                ",
"                                        3.4.F                   ",
"                                      U 5.E 9.J                 ",
"                                      Q 2.S ! 6.                ",
"                                      7.8.R S q.G               ",
"                                      / H A   I I W             ",
"                                      D ~ Q P C ^ J 6.K         ",
"                                      T Y 7.8.Q   L 3.          ",
"                                  ,.:.    H 2.7.Y Z             ",
"                          ].jX1.e.e.t. .      ^ 0.              ",
"                    ` U.}.hXkX@XS.k.| u.'                       ",
"              * 4 , t b C.pXrX0X:X.XF.t...                      ",
"              r < : = O 3 n 9XdXqX2XoXJ.u.=.                    ",
"              h % : : : - O s v.aXuXeXOXA.p.o.                  ",
"            M.j @ : : : : : # 2 g V { w.x.p.s.                  ",
"            +Xk + : : : : : O l f . & : 7 a m )                 ",
"          g.1X_ + ; : : : # 0 [.d $ : : ; % % 9                 ",
"          N.*X4Xc - o O o q d.yXe = : : : : : ; 1               ",
"          I.&X5X8Xh.M z B {.gXtXu & : : : : : > 8               ",
"          /.%X4X2XeXsXfXgXaXiXuXx X : : : : % p                 ",
"        $.).XX3X2X2X2X3X6X5X2X7XE.i o = ; $ 5 (                 ",
"          !.(.>X2X2X2X2X2X2X2X2XwX|.v w 6 y N a.                ",
"          G.Q.&X3X2X2X2X2X2X2X2X2X8X,XV.c.f.t.#.                ",
"          z._.!.-X3X2X2X2X2X2X2X3X#XT.~.P. .u.O.                ",
"          ;.'.R.^.<X2X3X3X3X3X;X XT.R.R.p.| r.                  ",
"            b.).R.R.`.$X=X%X XQ.T.R.Q.n.} p.o.                  ",
"              L.Q.R.T.T.T.T.T.R.Q.W.m.} u.*.                    ",
"              +.Z.Y.Q.Q.Q.Q.Q.Q.P.j.| p.-.                      ",
"                %.i.n.D.K.H.B.l.e.y.<.$.                        ",
"                  a.} } X.u.y. .*.&.                            ",
"                  @.y.t.>.+.                                    ",
"                    [ ]                                         "
};
